<svg width="54" height="34" viewBox="0 0 54 34" fill="none" xmlns="http://www.w3.org/2000/svg">
<g id="Frame 48095566">
<g id="Group">
<g id="Page-1_00000023255517408034166420000007321927653860481714_">
<g id="Dribbble-Light-Preview_00000167394728934066269890000007076706047666023357_">
<g id="icons_00000165235431622853240750000010434666043597403780_">
<path id="pause-_x5B__x23_1006_x5D__00000081650055833718404700000007558407514911942569_" fill-rule="evenodd" clip-rule="evenodd" d="M15.1051 0.0483798C13.108 0.0483798 11.4883 1.64077 11.4883 3.6042V24.8977C11.4883 26.5293 12.5853 28.0042 14.198 28.3914C16.5866 28.9629 18.722 27.1977 18.722 24.9439V3.6042C18.722 1.64308 17.0999 0.0483798 15.1051 0.0483798ZM33.1919 3.6042V24.8977C33.1919 26.5293 32.0949 28.0042 30.4822 28.3914C28.0936 28.9629 25.9581 27.1977 25.9581 24.9439V3.65028C25.9581 2.0187 27.0552 0.54384 28.6679 0.156684C31.0565 -0.414831 33.1919 1.35271 33.1919 3.6042Z" fill="#F37637"/>
</g>
</g>
</g>
<path id="Vector" fill-rule="evenodd" clip-rule="evenodd" d="M41.9306 10.407C40.4444 8.92065 37.7839 8.81694 35.6274 10.2849C33.5365 11.7644 32.6153 14.2486 33.3021 16.2766C35.0766 16.3457 36.9096 15.7973 38.5059 14.7095C40.1046 13.6218 41.2414 12.0939 41.9306 10.407ZM39.3451 15.9978C40.864 14.9653 42.0525 13.5158 42.9268 11.9372C43.6136 13.9652 42.758 16.4633 40.6015 17.9289C38.5106 19.4084 35.8501 19.3047 34.2983 17.8068C36.0611 17.5925 37.8261 17.0302 39.3451 15.9978ZM41.3727 19.2033C42.2517 18.6064 42.8799 17.8874 43.3745 17.1431L50.8708 30.9655C51.342 31.6891 51.1498 32.6339 50.4301 33.1225C49.7105 33.611 48.7846 33.429 48.3814 32.7169L38.7427 20.2956C39.6826 20.0606 40.5874 19.678 41.3727 19.2033Z" fill="url(#paint0_linear_584_4109)"/>
<path id="Vector_2" opacity="0.1" d="M11.4858 3.46821V25.0798C11.4858 27.6562 14.5636 29.0435 16.549 27.3589L29.2936 16.5531C30.7094 15.3525 30.7094 13.1932 29.2936 11.9925L16.549 1.18676C14.5636 -0.493219 11.4858 0.891782 11.4858 3.46821Z" fill="#231F20"/>
<path id="Vector_3" d="M0 2.65472V25.8472C0 28.1148 2.70738 29.3339 4.45371 27.8521L18.1313 16.2559C19.3783 15.2004 19.3783 13.3015 18.1313 12.2437L4.45371 0.647502C2.70738 -0.831984 0 0.387096 0 2.65472Z" fill="#154F93"/>
<path id="Vector_4" opacity="0.15" d="M31.694 33.9498C44.0133 33.9498 54 33.7022 54 33.3967C54 33.0912 44.0133 32.8436 31.694 32.8436C19.3747 32.8436 9.38794 33.0912 9.38794 33.3967C9.38794 33.7022 19.3747 33.9498 31.694 33.9498Z" fill="#231F20"/>
</g>
</g>
<defs>
<linearGradient id="paint0_linear_584_4109" x1="36.2806" y1="11.2647" x2="64.0592" y2="55.9269" gradientUnits="userSpaceOnUse">
<stop stop-color="#154F93"/>
<stop offset="0.0029425" stop-color="#164F92"/>
<stop offset="0.1401" stop-color="#50597B"/>
<stop offset="0.2773" stop-color="#826266"/>
<stop offset="0.4115" stop-color="#AB6955"/>
<stop offset="0.5421" stop-color="#CA6F48"/>
<stop offset="0.6682" stop-color="#E1733F"/>
<stop offset="0.7876" stop-color="#EE7539"/>
<stop offset="0.8936" stop-color="#F37637"/>
</linearGradient>
</defs>
</svg>
