<svg width="89" height="25" viewBox="0 0 89 25" fill="none" xmlns="http://www.w3.org/2000/svg">
<g id="Social media icons">
<path id="Vector" d="M24.2188 12.1094C24.2188 5.41992 18.7988 0 12.1094 0C5.41992 0 0 5.41992 0 12.1094C0 18.1533 4.42822 23.1631 10.2173 24.0723V15.6099H7.14111V12.1094H10.2173V9.44141C10.2173 6.40674 12.0239 4.73047 14.791 4.73047C16.1162 4.73047 17.502 4.9668 17.502 4.9668V7.94531H15.9746C14.4707 7.94531 14.0015 8.87891 14.0015 9.83643V12.1094H17.3599L16.8228 15.6099H14.0015V24.0723C19.7905 23.1631 24.2188 18.1533 24.2188 12.1094Z" fill="url(#paint0_linear_197_172)"/>
<path id="Vector_2" d="M51.5986 4.17871C49.5527 2.12793 46.8281 1 43.9326 1C37.9561 1 33.0928 5.86328 33.0928 11.8398C33.0928 13.749 33.5908 15.6143 34.5381 17.2598L33 22.875L38.7471 21.3662C40.3291 22.2305 42.1113 22.6846 43.9277 22.6846H43.9326C49.9043 22.6846 54.875 17.8213 54.875 11.8447C54.875 8.94922 53.6445 6.22949 51.5986 4.17871V4.17871ZM43.9326 20.8584C42.3115 20.8584 40.7246 20.4238 39.3428 19.6035L39.0156 19.4082L35.6074 20.3018L36.5156 16.9766L36.3008 16.6348C35.3975 15.1992 34.9238 13.5439 34.9238 11.8398C34.9238 6.87402 38.9668 2.83105 43.9375 2.83105C46.3447 2.83105 48.6055 3.76855 50.3047 5.47266C52.0039 7.17676 53.0488 9.4375 53.0439 11.8447C53.0439 16.8154 48.8984 20.8584 43.9326 20.8584V20.8584ZM48.874 14.1104C48.6055 13.9736 47.2725 13.3193 47.0234 13.2314C46.7744 13.1387 46.5938 13.0947 46.4131 13.3682C46.2324 13.6416 45.7148 14.2471 45.5537 14.4326C45.3975 14.6133 45.2363 14.6377 44.9678 14.501C43.376 13.7051 42.3311 13.0801 41.2813 11.2783C41.0029 10.7998 41.5596 10.834 42.0771 9.79883C42.165 9.61816 42.1211 9.46191 42.0527 9.3252C41.9844 9.18848 41.4424 7.85547 41.2178 7.31348C40.998 6.78613 40.7734 6.85938 40.6074 6.84961C40.4512 6.83984 40.2705 6.83984 40.0898 6.83984C39.9092 6.83984 39.6162 6.9082 39.3672 7.17676C39.1182 7.4502 38.4199 8.10449 38.4199 9.4375C38.4199 10.7705 39.3916 12.0596 39.5234 12.2402C39.6602 12.4209 41.4326 15.1553 44.1523 16.332C45.8711 17.0742 46.5449 17.1377 47.4043 17.0107C47.9268 16.9326 49.0059 16.3564 49.2305 15.7217C49.4551 15.0869 49.4551 14.5449 49.3867 14.4326C49.3232 14.3105 49.1426 14.2422 48.874 14.1104Z" fill="url(#paint1_linear_197_172)"/>
<path id="Vector_3" d="M76.1094 0C69.4199 0 64 5.41992 64 12.1094C64 18.7988 69.4199 24.2188 76.1094 24.2188C82.7988 24.2188 88.2188 18.7988 88.2188 12.1094C88.2188 5.41992 82.7988 0 76.1094 0ZM82.0566 8.2959L80.0693 17.6611C79.9229 18.3252 79.5273 18.4863 78.9756 18.1738L75.9482 15.9424L74.4883 17.3486C74.3271 17.5098 74.1904 17.6465 73.8779 17.6465L74.0928 14.5654L79.7031 9.49707C79.9473 9.28223 79.6494 9.16016 79.3271 9.375L72.3936 13.7402L69.4053 12.8076C68.7559 12.6025 68.7412 12.1582 69.542 11.8457L81.2168 7.34375C81.7588 7.14844 82.2324 7.47559 82.0566 8.2959V8.2959Z" fill="url(#paint2_linear_197_172)"/>
</g>
<defs>
<linearGradient id="paint0_linear_197_172" x1="3.30752e-07" y1="7.09823" x2="23.7884" y2="24.6553" gradientUnits="userSpaceOnUse">
<stop stop-color="#053881"/>
<stop offset="1" stop-color="#7EC2F3"/>
</linearGradient>
<linearGradient id="paint1_linear_197_172" x1="33" y1="7.45032" x2="54.5781" y2="23.2797" gradientUnits="userSpaceOnUse">
<stop stop-color="#053881"/>
<stop offset="1" stop-color="#7EC2F3"/>
</linearGradient>
<linearGradient id="paint2_linear_197_172" x1="64" y1="7.14143" x2="87.89" y2="24.6668" gradientUnits="userSpaceOnUse">
<stop stop-color="#053881"/>
<stop offset="1" stop-color="#7EC2F3"/>
</linearGradient>
</defs>
</svg>
