<svg width="33" height="33" viewBox="0 0 33 33" fill="none" xmlns="http://www.w3.org/2000/svg">
<g id="Icon" clip-path="url(#clip0_501_11684)">
<path id="Vector" d="M16.5001 0.916626C13.418 0.916626 10.4051 1.83057 7.84245 3.54289C5.27979 5.25521 3.28243 7.68899 2.10297 10.5365C0.9235 13.384 0.614898 16.5172 1.21618 19.5401C1.81747 22.563 3.30164 25.3397 5.48101 27.519C7.66038 29.6984 10.4371 31.1826 13.4599 31.7839C16.4828 32.3852 19.6161 32.0765 22.4636 30.8971C25.3111 29.7176 27.7448 27.7203 29.4572 25.1576C31.1695 22.5949 32.0834 19.5821 32.0834 16.5C32.0834 12.367 30.4416 8.40332 27.5192 5.48088C24.5967 2.55844 20.633 0.916626 16.5001 0.916626ZM26.5669 25.8344C25.033 24.2762 23.0273 23.2682 20.8616 22.967C20.5719 22.9277 20.3066 22.7838 20.1157 22.5625C19.9247 22.3411 19.8213 22.0576 19.8248 21.7653V20.0291C19.8314 19.7432 19.9396 19.4689 20.1301 19.2555C21.4581 17.644 22.1955 15.6271 22.2201 13.5391C22.2201 9.21246 19.9211 6.79246 16.457 6.79246C12.9929 6.79246 10.6288 9.30138 10.6288 13.5391C10.6878 15.6377 11.458 17.6539 12.8133 19.2573C13.0045 19.4707 13.113 19.7454 13.1194 20.0319V21.758C13.1239 22.0517 13.0197 22.3368 12.8268 22.5585C12.634 22.7801 12.366 22.9227 12.0744 22.9588C9.91408 23.2376 7.90478 24.2172 6.35442 25.7473C4.5508 23.7754 3.36089 21.3207 2.93018 18.6832C2.49947 16.0458 2.84665 13.3401 3.92924 10.8968C5.01184 8.45361 6.78294 6.3788 9.02597 4.92612C11.269 3.47344 13.8867 2.70587 16.559 2.71726C19.2314 2.72865 21.8424 3.51852 24.073 4.99027C26.3036 6.46201 28.0569 8.55186 29.1186 11.0042C30.1804 13.4566 30.5044 16.1652 30.0513 18.7989C29.5981 21.4325 28.3873 23.877 26.5669 25.8335V25.8344Z" fill="#194F94"/>
</g>
<defs>
<clipPath id="clip0_501_11684">
<rect width="33" height="33" fill="white"/>
</clipPath>
</defs>
</svg>
